<svg xmlns="http://www.w3.org/2000/svg" viewBox="0 0 512.001 512.001"><path d="M494.587 0h-351.71a9.015 9.015 0 0 0 0 18.03h342.695v441.665H43.909v-75.723h22.297v44.412a9.015 9.015 0 0 0 9.015 9.015h51.943a9.015 9.015 0 0 0 0-18.03H84.235v-35.397h7.78a9.015 9.015 0 0 0 9.015-9.015v-90.729a9.015 9.015 0 0 0-9.015-9.015h-7.78v-72.7h7.78a9.015 9.015 0 0 0 9.015-9.015v-90.731a9.015 9.015 0 0 0-9.015-9.015h-7.78V58.355h361.011v48.699a9.015 9.015 0 0 0 18.03 0V49.341a9.015 9.015 0 0 0-9.015-9.015H75.22a9.015 9.015 0 0 0-9.015 9.015v44.41H43.909V18.029h67.544a9.015 9.015 0 0 0 0-18.03H34.894a9.015 9.015 0 0 0-9.015 9.015v84.738h-8.465a9.015 9.015 0 0 0-9.015 9.015v90.731a9.015 9.015 0 0 0 9.015 9.015h8.465v72.7h-8.465a9.015 9.015 0 0 0-9.015 9.015v90.729a9.015 9.015 0 0 0 9.015 9.015h8.465v84.738a9.015 9.015 0 0 0 9.015 9.015h36.348v25.264a9.015 9.015 0 0 0 9.015 9.015h94.762a9.015 9.015 0 0 0 9.015-9.015v-25.264h161.414v25.264a9.015 9.015 0 0 0 9.015 9.015h94.762a9.015 9.015 0 0 0 9.015-9.015v-25.264h36.349a9.015 9.015 0 0 0 9.015-9.015V9.015C503.601 4.036 499.567 0 494.587 0zM26.429 184.482v-72.7h56.57v72.702h-56.57v-.002zm39.777 18.029v72.7H43.909v-72.7h22.297zM26.429 365.942v-72.7h56.57v72.7h-56.57zm62.842 128.029v-16.249h76.733v16.249H89.271zm350.939 0h-76.733v-16.249h76.733v16.249z"/><path d="M454.261 129.464a9.015 9.015 0 0 0-9.015 9.015v280.889H158.588a9.015 9.015 0 0 0 0 18.03h295.673a9.015 9.015 0 0 0 9.015-9.015V138.479a9.016 9.016 0 0 0-9.015-9.015z"/><path d="M268.607 140.005c-54.466 0-98.778 44.312-98.778 98.778 0 54.466 44.312 98.778 98.778 98.778 54.467-.001 98.778-44.313 98.778-98.778 0-54.466-44.312-98.778-98.778-98.778zm80.233 89.763h-33.776a47.058 47.058 0 0 0-7.24-17.453l23.861-23.861c9.275 11.6 15.423 25.796 17.155 41.314zm-71.217-71.218c15.518 1.732 29.714 7.881 41.314 17.155l-23.861 23.861a47.085 47.085 0 0 0-17.453-7.24V158.55zm-18.029.001v33.774h-.001a47.071 47.071 0 0 0-17.453 7.24l-23.86-23.86c11.599-9.274 25.796-15.422 41.314-17.154zm-54.063 29.903l23.861 23.86a47.08 47.08 0 0 0-7.24 17.455h-33.776c1.731-15.519 7.881-29.715 17.155-41.315zm-17.154 59.342h33.774v.001a47.071 47.071 0 0 0 7.24 17.453l-23.86 23.86c-9.274-11.6-15.422-25.796-17.154-41.314zm71.216 71.219c-15.518-1.732-29.713-7.881-41.314-17.155l23.861-23.861a47.085 47.085 0 0 0 17.453 7.24v33.776zm-20.284-80.232c0-16.155 13.143-29.3 29.298-29.3s29.3 13.144 29.3 29.3-13.144 29.298-29.3 29.298-29.298-13.143-29.298-29.298zm38.314 80.23v-33.774h-.001a47.095 47.095 0 0 0 17.455-7.24l23.861 23.86c-11.601 9.274-25.797 15.422-41.315 17.154zm54.062-29.901l-23.861-23.861a47.085 47.085 0 0 0 7.24-17.453h33.776c-1.732 15.518-7.881 29.712-17.155 41.314z"/></svg>